<?xml version="1.0" encoding="UTF-8"?>
<svg id="Calque_2" data-name="Calque 2" xmlns="http://www.w3.org/2000/svg" viewBox="0 0 339.06 403.45">
  <g id="Calque_1-2" data-name="Calque 1">
    <g id="_2JG8D8.tif" data-name="2JG8D8.tif">
      <path d="M235.66,0c3.81,2.02,6.07,3.35,7.88,7.46,6.97,15.93,8.93,37.82,15.81,54.25,10.68,13.82,22.99,26.49,33.65,40.31,4.34,5.63,8.43,9.29,5.31,17.1-1.04,2.61-5.26,6.9-8.04,6.9h-38.1c-1.05,26.28,3.9,52.82-7.18,77.47-6.64,14.77-18.05,27.87-31.94,36.11l-.2,14.29,85.64,22.21c52.78,18.63,38.18,72.52,40.1,116.54-.46,4.5-3.26,8.18-7.43,9.88-107.28,1.39-215.08.96-322.41.22-4.21-1.38-6.05-4.45-7.99-8.13,1.75-22.3-2.34-48.23,0-70.1,2.32-21.68,20.63-42.62,41.3-48.79l84.3-21.43-.05-14.7c-13.89-8.24-25.3-21.34-31.94-36.11-11.08-24.65-6.14-51.19-7.18-77.47h-38.1c-2.19,0-6.54-3.65-7.62-5.75-4.08-7.96.4-12.43,4.89-18.25,10.66-13.81,22.97-26.48,33.65-40.31,5.78-10.65,11.35-51.45,18.16-58.2,1.59-1.57,3.79-2.21,5.53-3.52h131.99ZM106.81,55.14h125.71l-9.12-31.56h-107.46l-9.12,31.56ZM261.58,102.4c.35-1.38-.58-1.58-1.18-2.37-4.06-5.38-11.09-14.29-15.71-18.91-.95-.95-1.67-2.15-3.17-2.33l-144.92.39-18.87,23.22h183.84ZM228.58,126.03h-117.85v48.44c0,29.77,32.44,54.95,60.93,53.99,26.91-.91,56.92-25.82,56.92-53.99v-48.44ZM189.29,249.69c-12.71,3.42-26.57,3.33-39.27,0v8.25s19.92,20.05,19.92,20.05l18.95-18.86.4-9.44ZM236.44,285.14l-31.64-7.76c-2.66.73-22.06,22.94-26.91,26.65-5.09,3.89-10.22,4.49-15.7.81l-27.65-27.45-31.66,7.75v45.69h133.56v-45.69ZM79.31,291.44c-20.24,5.14-44.01,5.37-52.45,28.15-.72,1.94-2.55,7.58-2.55,9.26v50.81h31.43v-19.3c0-.96,2.61-7.93,3.26-9.34,3.55-7.7,12.01-15.92,20.31-17.84v-41.75ZM315.01,379.66v-50.81c0-12.96-12.62-26.01-24.19-30.1-9.42-3.33-21.02-5.34-30.8-7.32v41.75c8.32,1.59,16.83,10.29,20.31,17.84.65,1.41,3.26,8.38,3.26,9.34v19.3h31.43ZM260.01,379.66v-15.36c0-3.8-7.15-10.25-11.39-9.85l-159.93.35c-3.45.26-9.38,6.37-9.38,9.5v15.36h180.7Z"/>
    </g>
  </g>
</svg>